<svg width="205" height="162" viewBox="0 0 205 162" fill="none" xmlns="http://www.w3.org/2000/svg"><path d="M20.3177 2.20007C19.8177 4.50007 16.6177 22.3001 6.81769 78.5001C4.11769 93.9001 1.31769 109.3 0.717691 112.8C0.117691 116.3 -0.182309 119.3 0.117691 119.6C0.717691 120.3 79.0177 120.1 79.7177 119.4C80.7177 118.4 89.7177 77.5001 89.8177 73.8001C89.8177 69.2001 88.1177 65.2001 85.6177 64.5001C84.6177 64.1001 83.8177 63.5001 83.8177 63.1001C83.8177 61.9001 73.8177 59.3001 64.5177 57.9001C56.5177 56.7001 54.5177 55.3001 56.8177 52.6001C57.4177 51.8001 60.8177 50.8001 64.6177 50.4001C75.8177 49.3001 85.7177 46.3001 90.3177 42.8001C95.7177 38.7001 98.5177 34.0001 103.918 20.5001C107.518 11.4001 108.418 9.90006 110.218 10.2001C112.218 10.5001 112.318 10.9001 111.918 23.5001C111.418 44.0001 113.518 46.7001 132.318 49.8001C140.018 51.0001 143.418 52.0001 144.218 53.2001C145.918 56.0001 144.018 56.9001 131.718 58.5001C118.218 60.2001 114.318 61.5001 109.418 65.3001C105.718 68.3001 102.218 75.8001 101.418 82.5001L101.018 86.0001H137.418C168.518 86.0001 174.318 85.8001 177.818 84.4001C180.018 83.5001 181.818 82.4001 181.818 81.9001C181.818 81.4001 182.418 81.0001 183.118 81.0001C184.718 81.0001 188.418 76.2001 189.918 72.3001C192.418 65.6001 200.918 15.0001 200.218 11.1001C199.318 6.80006 195.018 2.40006 190.218 1.10007C187.518 0.400063 160.418 6.86646e-05 103.618 6.86646e-05H20.8177L20.3177 2.20007Z" fill="#FF5C38"></path></svg>